<?xml version="1.0" encoding="UTF-8"?>
<svg version="1.1" xmlns="http://www.w3.org/2000/svg" width="445" height="514">
<path d="M0 0 C0.99 0.495 0.99 0.495 2 1 C2.20589069 53.25674545 2.3645314 105.51345001 2.45958797 157.77052111 C2.47084465 163.93653297 2.48249352 170.10254402 2.49438477 176.26855469 C2.49792596 178.1099079 2.49792596 178.1099079 2.50153869 179.98846017 C2.5407265 199.87879948 2.61170186 219.76890526 2.69437516 239.65910591 C2.77846697 260.06036419 2.82851377 280.46149997 2.84679645 300.86292446 C2.85916062 313.45714647 2.89824435 326.05070849 2.9712482 338.64472739 C3.01873335 347.27481729 3.03322113 355.9045648 3.0215124 364.53477593 C3.01573369 369.51812799 3.02474012 374.50032492 3.07284927 379.48347282 C3.11655632 384.04384441 3.11892333 388.6022813 3.08809005 393.16274081 C3.08427804 394.81428868 3.09577833 396.46595586 3.12394864 398.11726786 C3.32256824 410.47657376 3.32256824 410.47657376 0.02719772 414.27241111 C-2.26851447 415.83268778 -4.43775226 416.94973471 -7 418 C-7.96881104 418.57556641 -8.93762207 419.15113281 -9.93579102 419.74414062 C-11.20700806 420.44313477 -11.20700806 420.44313477 -12.50390625 421.15625 C-13.47924316 421.69644775 -14.45458008 422.23664551 -15.45947266 422.79321289 C-16.99547119 423.63807251 -16.99547119 423.63807251 -18.5625 424.5 C-27.14112512 429.25920024 -35.66478982 434.09580253 -44.125 439.0625 C-52.81708244 444.16272493 -61.55984873 449.1611181 -70.3449707 454.09912109 C-78.39702417 458.63515943 -86.37531672 463.29168649 -94.34692383 467.96728516 C-100.41706435 471.51895782 -106.52409606 474.98800546 -112.6875 478.375 C-117.53248849 481.03934719 -122.30973042 483.75529666 -127 486.6875 C-133.16196214 490.53872634 -139.42939941 494.20279116 -145.71777344 497.84292603 C-146.89751135 498.52610336 -148.07655915 499.21047393 -149.25488281 499.89608765 C-150.92829231 500.86914846 -152.6047292 501.83699712 -154.28125 502.8046875 C-155.75174805 503.65522705 -155.75174805 503.65522705 -157.25195312 504.52294922 C-159.78972747 505.88698038 -162.30366053 506.99286682 -165 508 C-166.56942381 506.43057619 -166.125404 504.89127824 -166.12584114 502.70990753 C-166.12844889 501.77846656 -166.13105664 500.84702559 -166.13374341 499.88735914 C-166.13151268 498.85207091 -166.12928196 497.81678267 -166.12698364 496.75012207 C-166.12854363 495.65966473 -166.13010362 494.56920739 -166.13171089 493.44570589 C-166.13572604 489.76131656 -166.13252926 486.07696783 -166.12939453 482.39257812 C-166.13074834 479.76354447 -166.13252816 477.13451101 -166.13470459 474.50547791 C-166.13916296 468.08768245 -166.13818552 461.66989866 -166.13529195 455.25210273 C-166.13303818 450.038556 -166.13272528 444.82501254 -166.13381577 439.61146545 C-166.133969 438.87086822 -166.13412223 438.13027098 -166.13428011 437.3672314 C-166.13459982 435.86295966 -166.13492403 434.35868793 -166.1352527 432.85441619 C-166.13810769 418.73214643 -166.13482017 404.60988315 -166.12945233 390.48761445 C-166.12498428 378.35681134 -166.1257602 366.22601779 -166.13037109 354.09521484 C-166.13571653 340.02521402 -166.137833 325.95521889 -166.13475883 311.88521719 C-166.13444026 310.38632298 -166.13412589 308.88742876 -166.13381577 307.38853455 C-166.13366149 306.6509528 -166.13350721 305.91337106 -166.13334826 305.15343836 C-166.13248301 299.94311626 -166.13394615 294.73279774 -166.13629532 289.5224762 C-166.13938458 282.51631062 -166.13720107 275.51016349 -166.13140106 268.50399971 C-166.13007267 265.92432752 -166.13046891 263.34465382 -166.13266373 260.76498222 C-166.13537213 257.25992644 -166.13199791 253.75492988 -166.12698364 250.24987793 C-166.12921436 249.2145897 -166.13144509 248.17930146 -166.13374341 247.11264086 C-166.13113566 246.18119989 -166.12852791 245.24975892 -166.12584114 244.29009247 C-166.12567879 243.47993164 -166.12551644 242.6697708 -166.12534916 241.83505964 C-166 240 -166 240 -165 239 C-162.94987154 238.90060374 -160.89628608 238.87200447 -158.84375 238.87060547 C-157.52568359 238.86745331 -156.20761719 238.86430115 -154.84960938 238.86105347 C-153.39973925 238.86284325 -151.94986942 238.8648942 -150.5 238.8671875 C-149.02408838 238.86651443 -147.54817687 238.86554437 -146.07226562 238.86428833 C-142.97524971 238.86281152 -139.87826258 238.86496536 -136.78125 238.86962891 C-132.80291451 238.8753262 -128.82464648 238.8720471 -124.84631348 238.86605644 C-121.79752083 238.86245037 -118.74874429 238.86358963 -115.69995117 238.86618423 C-114.23266594 238.86685338 -112.76537926 238.86602553 -111.2980957 238.86370468 C-109.25081407 238.86117743 -107.20352734 238.8657094 -105.15625 238.87060547 C-103.40538086 238.87179886 -103.40538086 238.87179886 -101.61914062 238.87301636 C-99 239 -99 239 -98 240 C-97.8911254 241.9359365 -97.85310166 243.87587207 -97.84178162 245.81483459 C-97.8319928 247.07833237 -97.82220398 248.34183014 -97.81211853 249.64361572 C-97.80621357 251.05676232 -97.80040317 252.46990931 -97.79467773 253.88305664 C-97.78510463 255.36102069 -97.77509489 256.83898196 -97.76467896 258.31694031 C-97.73756228 262.34152846 -97.71658947 266.36612842 -97.69667697 270.3907578 C-97.67485897 274.59218723 -97.64744987 278.79357998 -97.62062073 282.99497986 C-97.57063705 290.95643597 -97.52571935 298.91791238 -97.48259836 306.8794083 C-97.43327438 315.94095193 -97.37833837 325.00245878 -97.32291877 334.06396687 C-97.20901164 352.70927712 -97.10219171 371.35462205 -97 390 C-94.12395142 388.41074417 -91.24935578 386.81887762 -88.375 385.2265625 C-87.16263672 384.55669312 -87.16263672 384.55669312 -85.92578125 383.87329102 C-80.78458717 381.02316767 -75.72754649 378.0891872 -70.75 374.9609375 C-69 374 -69 374 -67 374 C-67.00092179 373.29304877 -67.00184359 372.58609753 -67.00279331 371.85772353 C-67.05638441 329.97985451 -67.0684275 288.10215362 -67.02634037 246.2242661 C-67.02132559 241.19858326 -67.01665879 236.17290016 -67.01220703 231.1472168 C-67.01086883 229.6464002 -67.01086883 229.6464002 -67.0095036 228.11526408 C-66.99587896 211.90377345 -67.01045792 195.69242419 -67.03541696 179.4809523 C-67.06039147 162.8527216 -67.05515687 146.22469939 -67.02174091 129.59648246 C-67.0020691 119.33165742 -67.00610318 109.0673991 -67.04023629 98.80260964 C-67.06137191 91.76846279 -67.05322633 84.73473401 -67.02184123 77.70062683 C-67.00459018 73.63897103 -67.00045427 69.5783917 -67.03101921 65.51679039 C-67.05870818 61.79956603 -67.0497079 58.08431941 -67.01125896 54.36720749 C-67.00034856 52.38257165 -67.02893653 50.39784078 -67.05882359 48.41339999 C-66.91977158 39.98298954 -66.91977158 39.98298954 -64.25224209 37.13211477 C-62.20702653 35.83187656 -60.24793856 34.8924068 -58 34 C-57.0622876 33.44094971 -56.1245752 32.88189941 -55.15844727 32.3059082 C-54.30307373 31.80921631 -53.4477002 31.31252441 -52.56640625 30.80078125 C-51.59646729 30.23649414 -50.62652832 29.67220703 -49.62719727 29.09082031 C-48.61584717 28.50397461 -47.60449707 27.91712891 -46.5625 27.3125 C-44.41652763 26.06404105 -42.27069494 24.81534196 -40.125 23.56640625 C-39.07957031 22.95812988 -38.03414063 22.34985352 -36.95703125 21.72314453 C-32.98604874 19.40914234 -29.02307677 17.08175178 -25.0625 14.75 C-24.39992188 14.36134766 -23.73734375 13.97269531 -23.0546875 13.57226562 C-19.43820777 11.44847018 -15.83778066 9.30087784 -12.25 7.12890625 C-11.46616943 6.65807617 -10.68233887 6.18724609 -9.87475586 5.70214844 C-8.36376074 4.7940517 -6.85656663 3.87959204 -5.35375977 2.95800781 C-3.60443519 1.91071895 -1.8058367 0.94652218 0 0 Z " fill="#02FEFD" transform="translate(305,3)"/>
<path d="M0 0 C1.34341537 2.68683074 1.13454802 4.77061595 1.14526367 7.77905273 C1.15164352 8.99048447 1.15802338 10.2019162 1.16459656 11.45005798 C1.16626579 13.42190819 1.16626579 13.42190819 1.16796875 15.43359375 C1.17118109 16.79118383 1.17454515 18.14877357 1.17805481 19.50636292 C1.18404667 22.35361534 1.18589465 25.20083741 1.18530273 28.0480957 C1.18520109 31.69780835 1.19885485 35.34732653 1.21607494 38.99699306 C1.22718942 41.80138545 1.22922212 44.60573074 1.22869301 47.4101429 C1.23044843 49.41044173 1.24129256 51.41072586 1.25224304 53.41099548 C1.24916641 54.62557938 1.24608978 55.84016327 1.24291992 57.09155273 C1.24434494 58.16251694 1.24576996 59.23348114 1.24723816 60.3368988 C1 63 1 63 -1 66 C-3.7734375 66.51953125 -3.7734375 66.51953125 -7.375 66.8125 C-37.88388993 70.12357126 -66.03928603 86.24591867 -88 107 C-88.87269531 107.79664063 -89.74539062 108.59328125 -90.64453125 109.4140625 C-98.72851667 117.07014025 -104.93803713 125.70117356 -111 135 C-111.58225342 135.88727783 -111.58225342 135.88727783 -112.17626953 136.79248047 C-133.366678 169.67745962 -138.0018076 211.32876185 -130 249 C-128.27595199 256.61410871 -126.15668816 263.83706645 -123 271 C-122.43365358 272.51940515 -121.87079722 274.04011881 -121.3125 275.5625 C-116.94782262 286.5075116 -110.37062446 297.48071817 -102.75645161 306.46776676 C-99.01223997 311.12840193 -98.29139057 314.52442365 -98.43237305 320.41381836 C-98.43164291 321.2243869 -98.43091278 322.03495544 -98.43016052 322.87008667 C-98.43362117 325.52737282 -98.47240752 328.18286701 -98.51171875 330.83984375 C-98.52105236 332.69070987 -98.52816588 334.54158839 -98.53315735 336.39247131 C-98.55218411 341.24743169 -98.60124732 346.10163581 -98.65667725 350.95629883 C-98.70796329 355.91672538 -98.73069132 360.87727497 -98.75585938 365.83789062 C-98.80937052 375.55892474 -98.89463061 385.27939931 -99 395 C-99.99 395.33 -100.98 395.66 -102 396 C-102.33 395.34 -102.66 394.68 -103 394 C-104.68472619 393.02836336 -106.3718839 392.06056185 -108.07421875 391.12011719 C-111.07451189 389.37501768 -113.78693081 387.27775711 -116.5 385.125 C-117.09530518 384.65376709 -117.69061035 384.18253418 -118.30395508 383.69702148 C-139.73489607 366.45890839 -157.59361103 346.02420433 -171 322 C-171.4316748 321.24154785 -171.86334961 320.4830957 -172.30810547 319.70166016 C-190.34703684 287.80534594 -199.45722409 252.73710101 -199.375 216.1875 C-199.37412384 215.23635315 -199.37324768 214.2852063 -199.37234497 213.30523682 C-199.32647776 198.1906435 -198.55787944 183.75347455 -195 169 C-194.6299585 167.4523999 -194.6299585 167.4523999 -194.25244141 165.87353516 C-188.90550614 144.16740692 -180.78221307 124.53171384 -170 105 C-169.34 105 -168.68 105 -168 105 C-167.34 103.02 -166.68 101.04 -166 99 C-165.34 99 -164.68 99 -164 99 C-163.9175 98.46375 -163.835 97.9275 -163.75 97.375 C-162.72843427 94.14004185 -160.94198797 91.77426852 -159 89 C-158.29875 87.88625 -157.5975 86.7725 -156.875 85.625 C-156.25625 84.75875 -155.6375 83.8925 -155 83 C-154.34 83 -153.68 83 -153 83 C-152.773125 82.278125 -152.54625 81.55625 -152.3125 80.8125 C-150.74962296 77.46347777 -148.66414749 75.52752454 -146 73 C-145.67 72.34 -145.34 71.68 -145 71 C-144.34 71 -143.68 71 -143 71 C-142.73832031 70.40058594 -142.47664063 69.80117187 -142.20703125 69.18359375 C-140.92779812 66.86938236 -139.73749558 65.70340555 -137.6875 64.0625 C-133.97218988 61.00374156 -130.5927742 57.71075748 -127.3125 54.1875 C-126 53 -126 53 -124 53 C-123.67 52.01 -123.34 51.02 -123 50 C-118.54285714 46 -118.54285714 46 -116 46 C-116 45.34 -116 44.68 -116 44 C-114.35743223 42.96089033 -112.68243484 41.97323727 -111 41 C-109.70555995 40.09913275 -108.4211671 39.18373785 -107.14453125 38.2578125 C-93.28855582 28.22775265 -93.28855582 28.22775265 -86.6171875 25.1953125 C-83.88455755 23.94727554 -81.23857553 22.56268389 -78.57836914 21.16845703 C-55.53008965 9.23817406 -26.22247854 -0.74448677 0 0 Z " fill="#C6C5C0" transform="translate(207,50)"/>
<path d="M0 0 C4.93052761 1.59264625 8.62080588 4.45960277 12.6875 7.5625 C13.39358398 8.09609131 14.09966797 8.62968262 14.82714844 9.17944336 C19.7699914 12.95544571 24.44807962 16.90143139 28.984375 21.16015625 C30.96377543 23.05119724 30.96377543 23.05119724 33.265625 24.55859375 C33.83796875 25.03425781 34.4103125 25.50992188 35 26 C35 26.99 35 27.98 35 29 C35.66 29 36.32 29 37 29 C37 29.66 37 30.32 37 31 C37.59296875 31.09410156 38.1859375 31.18820313 38.796875 31.28515625 C41.51333463 32.1665607 42.43697247 33.25042553 44.25 35.4375 C44.85585938 36.16453125 45.46171875 36.8915625 46.0859375 37.640625 C46.71757812 38.41921875 47.34921875 39.1978125 48 40 C48.63164062 40.75796875 49.26328125 41.5159375 49.9140625 42.296875 C72.18142715 69.44354267 90.97927916 103.82172914 95.60546875 139.05859375 C95.96277027 141.72243574 96.45397221 144.30739668 97 146.9375 C99.53905596 160.68064419 100.53159424 175.04136404 100 189 C99.97035156 190.02867187 99.94070313 191.05734375 99.91015625 192.1171875 C99.33257079 203.86612103 97.10352553 215.44518248 95 227 C94.84877686 227.84957275 94.69755371 228.69914551 94.54174805 229.57446289 C89.81365414 254.82831044 78.4676176 280.65207903 63.23144531 301.31835938 C61.93227994 303.09247735 60.67980548 304.8941639 59.4296875 306.703125 C52.74572552 316.24988687 45.11969655 324.66126047 37 333 C36.17371094 333.86625 35.34742188 334.7325 34.49609375 335.625 C29.04606235 341.24077476 23.15467369 346.17539673 17 351 C16.47905762 351.41378906 15.95811523 351.82757813 15.42138672 352.25390625 C13.83085794 353.5136166 12.2300165 354.75882044 10.625 356 C9.66851562 356.7425 8.71203125 357.485 7.7265625 358.25 C5.02145146 359.98623173 3.1834705 360.7300237 0 361 C-1.73831319 359.26168681 -1.12603903 357.01078864 -1.13552856 354.69396973 C-1.13350433 353.93394653 -1.1314801 353.17392334 -1.12939453 352.39086914 C-1.13114685 351.59414291 -1.13289917 350.79741669 -1.13470459 349.97654724 C-1.13912419 347.32939508 -1.13618446 344.68230915 -1.1328125 342.03515625 C-1.13348558 340.20291633 -1.13445563 338.3706765 -1.13571167 336.53843689 C-1.13718884 332.69236402 -1.13503371 328.84631432 -1.13037109 325.00024414 C-1.1246778 320.0624332 -1.12795015 315.12467665 -1.13394356 310.18686771 C-1.13755206 306.40115446 -1.13640918 302.61545416 -1.13381577 298.82974052 C-1.13314709 297.00881379 -1.13397285 295.1878859 -1.13629532 293.36696053 C-1.13882613 290.824117 -1.13497497 288.28136228 -1.12939453 285.73852539 C-1.13141876 284.98052643 -1.13344299 284.22252747 -1.13552856 283.44155884 C-1.11426344 278.22852687 -1.11426344 278.22852687 0 276 C0.66 276 1.32 276 2 276 C2.2371875 275.47277344 2.474375 274.94554687 2.71875 274.40234375 C4.04369339 271.91807489 5.59755896 269.67840433 7.22363281 267.38378906 C30.54232502 234.10960317 37.88900181 193.84695575 32 154 C27.72720545 130.76498484 17.98914344 107.15247081 2.6640625 88.98828125 C-0.93010483 84.69384188 -1.28441689 81.77710262 -1.24291992 76.37915039 C-1.24481827 75.60485184 -1.24671661 74.83055328 -1.24867249 74.03279114 C-1.25237975 71.47097679 -1.24167562 68.90944545 -1.23046875 66.34765625 C-1.22927665 64.56790704 -1.22882385 62.78815719 -1.2290802 61.00840759 C-1.22751534 57.27680527 -1.21922636 53.54529889 -1.20581055 49.8137207 C-1.18883309 45.03085524 -1.1849959 40.24809535 -1.18575573 35.46520329 C-1.18548373 31.78920992 -1.17999751 28.11323964 -1.17275429 24.43725395 C-1.16957226 22.67380383 -1.1676013 20.9103511 -1.16686058 19.14689827 C-1.1646914 16.68130167 -1.15593424 14.21581673 -1.14526367 11.75024414 C-1.14571686 11.0212793 -1.14617004 10.29231445 -1.14663696 9.54125977 C-1.12562662 6.21951747 -1.02888255 3.1764466 0 0 Z " fill="#CDCDC6" transform="translate(339,84)"/>
<path d="M0 0 C1.31806641 -0.00315216 2.63613281 -0.00630432 3.99414062 -0.009552 C5.44401075 -0.00776222 6.89388058 -0.00571127 8.34375 -0.00341797 C9.81966162 -0.00409104 11.29557313 -0.0050611 12.77148438 -0.00631714 C15.86850029 -0.00779395 18.96548742 -0.00564011 22.0625 -0.00097656 C26.04083549 0.00472073 30.01910352 0.00144163 33.99743652 -0.00454903 C37.04622917 -0.0081551 40.09500571 -0.00701584 43.14379883 -0.00442123 C44.61108406 -0.00375209 46.07837074 -0.00457994 47.5456543 -0.00690079 C49.59293593 -0.00942804 51.64022266 -0.00489607 53.6875 0 C55.43836914 0.00119339 55.43836914 0.00119339 57.22460938 0.00241089 C59.84375 0.12939453 59.84375 0.12939453 60.84375 1.12939453 C60.9526246 3.06533104 60.99064834 5.0052666 61.00196838 6.94422913 C61.0117572 8.2077269 61.02154602 9.47122467 61.03163147 10.77301025 C61.03753643 12.18615685 61.04334683 13.59930384 61.04907227 15.01245117 C61.05864537 16.49041522 61.06865511 17.96837649 61.07907104 19.44633484 C61.10618772 23.47092299 61.12716053 27.49552295 61.14707303 31.52015233 C61.16889103 35.72158176 61.19630013 39.92297451 61.22312927 44.12437439 C61.27311295 52.0858305 61.31803065 60.04730691 61.36115164 68.00880283 C61.41047562 77.07034647 61.46541163 86.13185332 61.52083123 95.1933614 C61.63473836 113.83867165 61.74155829 132.48401658 61.84375 151.12939453 C62.6275 150.61376953 63.41125 150.09814453 64.21875 149.56689453 C65.085 149.09251953 65.95125 148.61814453 66.84375 148.12939453 C67.50375 148.45939453 68.16375 148.78939453 68.84375 149.12939453 C66.86954865 151.65198514 65.87629358 152.12237533 62.65625 152.81689453 C61.728125 152.92001953 60.8 153.02314453 59.84375 153.12939453 C59.73957764 153.68030762 59.63540527 154.2312207 59.52807617 154.79882812 C58.6942198 157.63864009 57.39850488 159.86832819 55.89453125 162.41845703 C54.99250977 163.95566406 54.99250977 163.95566406 54.07226562 165.52392578 C53.43998047 166.58998047 52.80769531 167.65603516 52.15625 168.75439453 C51.54330078 169.79724609 50.93035156 170.84009766 50.29882812 171.91455078 C47.43179093 176.78516964 44.53910572 181.63918055 41.6171875 186.47705078 C39.35023349 190.24736121 37.21323583 194.05328029 35.15625 197.94189453 C33.14560851 201.73669147 31.08527856 205.46574815 28.84375 209.12939453 C32.5390128 207.37900689 36.03604539 205.44077485 39.53125 203.31689453 C43.04927586 201.1818893 46.59730977 199.14632259 50.21875 197.19189453 C57.97684294 193.00099242 65.5601062 188.52207307 73.09375 183.94189453 C75.90149667 182.2465673 78.69782411 180.66875681 81.65625 179.25439453 C86.55707523 176.88882309 91.09907686 173.93081669 95.6953125 171.03173828 C99.89452485 168.49449707 103.98408727 166.06394506 108.84375 165.12939453 C108.84375 164.46939453 108.84375 163.80939453 108.84375 163.12939453 C111.58304378 161.58865346 114.33662839 160.07546595 117.09375 158.56689453 C117.87105469 158.12925781 118.64835937 157.69162109 119.44921875 157.24072266 C120.20332031 156.83144531 120.95742188 156.42216797 121.734375 156.00048828 C122.77126465 155.42705688 122.77126465 155.42705688 123.82910156 154.84204102 C126.28376595 153.97374662 127.43171311 154.2334681 129.84375 155.12939453 C131.25152915 155.99487743 132.62502518 156.91746606 133.96875 157.87939453 C137.15154432 160.06724006 140.30632555 161.94391936 143.78125 163.62939453 C147.41233352 165.39648384 150.9636589 167.24724786 154.46875 169.25439453 C155.30664062 169.73134766 156.14453125 170.20830078 157.0078125 170.69970703 C157.61367188 171.17150391 158.21953125 171.64330078 158.84375 172.12939453 C158.84375 173.11939453 158.84375 174.10939453 158.84375 175.12939453 C157.84601563 175.67724609 156.84828125 176.22509766 155.8203125 176.78955078 C143.20614468 183.74324581 130.73119405 190.92989222 118.26660156 198.14746094 C112.58604471 201.43667353 106.90310021 204.72174237 101.21875 208.00439453 C100.12256348 208.63748535 99.02637695 209.27057617 97.89697266 209.92285156 C91.58852925 213.56126765 85.25934764 217.15762166 78.90039062 220.70678711 C71.72963398 224.72582012 64.64561821 228.8943619 57.55078125 233.04541016 C52.28915707 236.12302683 47.02059279 239.18411833 41.71875 242.19189453 C35.78552685 245.5668217 29.90639978 249.02946752 24.03125 252.50439453 C22.6246814 253.3342688 22.6246814 253.3342688 21.18969727 254.1809082 C16.69590502 256.83535914 12.21385798 259.5057447 7.7578125 262.22314453 C6.97768799 262.69445801 6.19756348 263.16577148 5.39379883 263.65136719 C3.93539099 264.53325439 2.48181223 265.423193 1.03393555 266.32226562 C-0.65145072 267.33623785 -2.39998372 268.24384652 -4.15625 269.12939453 C-5.14625 268.79939453 -6.13625 268.46939453 -7.15625 268.12939453 C-7.17911537 234.13219561 -7.19674772 200.13499859 -7.20731533 166.13779369 C-7.20856611 162.12840216 -7.20986042 158.11901065 -7.21118164 154.10961914 C-7.21144395 153.31138731 -7.21170626 152.51315547 -7.21197652 151.6907348 C-7.21633342 138.74865531 -7.22422107 125.80658025 -7.2334028 112.86450339 C-7.2427388 99.59476322 -7.2483055 86.32502538 -7.25033849 73.05528206 C-7.25171383 64.86045869 -7.25606501 56.66564781 -7.26416647 48.47082829 C-7.27005391 42.19777899 -7.2707091 35.92473931 -7.26935768 29.65168762 C-7.26963422 27.07040263 -7.27164209 24.4891172 -7.27545547 21.90783501 C-7.28038545 18.40053933 -7.27925087 14.89329837 -7.27650452 11.38600159 C-7.27941736 10.35003123 -7.2823302 9.31406088 -7.28533131 8.24669749 C-7.28334026 7.31463982 -7.28134921 6.38258215 -7.27929783 5.42228031 C-7.27967755 4.61157741 -7.28005727 3.8008745 -7.2804485 2.96560484 C-6.99803385 -1.20974918 -3.40629845 0.00232173 0 0 Z " fill="#04BBBB" transform="translate(146.15625,241.87060546875)"/>
<path d="M0 0 C0.33 0 0.66 0 1 0 C1 121.77 1 243.54 1 369 C-5.7489301 366.75035663 -5.7489301 366.75035663 -8.515625 365.046875 C-9.42574341 364.49290039 -9.42574341 364.49290039 -10.35424805 363.92773438 C-10.97984619 363.53908203 -11.60544434 363.15042969 -12.25 362.75 C-12.90460205 362.35103516 -13.5592041 361.95207031 -14.23364258 361.54101562 C-17.18283035 359.74261562 -20.12035648 357.9256034 -23.05859375 356.109375 C-23.92613281 355.57828125 -24.79367188 355.0471875 -25.6875 354.5 C-26.80705078 353.80390625 -26.80705078 353.80390625 -27.94921875 353.09375 C-29.98142989 352.00990406 -31.76889966 351.51448877 -34 351 C-34.05553561 308.40803876 -34.06914516 265.81624777 -34.02634037 223.2242661 C-34.02132559 218.19858326 -34.01665879 213.17290016 -34.01220703 208.1472168 C-34.0113149 207.1466724 -34.01042277 206.146128 -34.0095036 205.11526408 C-33.99587896 188.90377345 -34.01045792 172.69242419 -34.03541696 156.4809523 C-34.06039147 139.8527216 -34.05515687 123.22469939 -34.02174091 106.59648246 C-34.0020691 96.33165742 -34.00610318 86.0673991 -34.04023629 75.80260964 C-34.06137191 68.76846279 -34.05322633 61.73473401 -34.02184123 54.70062683 C-34.00459018 50.63897103 -34.00045427 46.5783917 -34.03101921 42.51679039 C-34.05870818 38.79956603 -34.0497079 35.08431941 -34.01125896 31.36720749 C-34.00034856 29.38257165 -34.02893653 27.39784078 -34.05882359 25.41339999 C-33.91984718 16.98757312 -33.91984718 16.98757312 -31.28404236 14.1577009 C-29.23245682 12.85746882 -27.23982571 11.92794506 -25 11 C-23.73619818 10.21656443 -22.48485708 9.41222714 -21.25390625 8.578125 C-14.46860795 4.260372 -9.27776329 1 -1 1 C-0.67 0.67 -0.34 0.34 0 0 Z " fill="#04BABA" transform="translate(272,26)"/>
<path d="M0 0 C6.47212234 4.85409175 12.32492975 9.32492975 18 15 C23.68698385 20.58613418 23.68698385 20.58613418 30.11840057 25.17418289 C32.44483794 27.43165018 32.48355595 29.00287718 32.53497362 32.17046237 C32.52605073 32.87288349 32.51712785 33.57530462 32.50793457 34.29901123 C32.51417453 35.04800918 32.5204145 35.79700713 32.52684355 36.56870198 C32.54283708 39.08615775 32.53014489 41.60265372 32.51757812 44.12011719 C32.52299663 45.92199266 32.53011775 47.7238637 32.53881836 49.52572632 C32.55709228 54.42679878 32.54996606 59.32753534 32.53730202 64.22861385 C32.52718916 69.35564531 32.5365635 74.48264761 32.54284668 79.60968018 C32.55013072 88.22486542 32.5405183 96.83991367 32.52148438 105.45507812 C32.49974181 115.41110201 32.50674495 125.3667979 32.52879 135.32281375 C32.54695541 143.86901362 32.54949589 152.41511485 32.53903532 160.96132779 C32.53280313 166.06611836 32.53195671 171.17075494 32.54518127 176.27553558 C32.55675472 181.07893293 32.54868662 185.88190885 32.52560425 190.68526077 C32.52032396 192.44645361 32.52181928 194.20768203 32.53065491 195.96886063 C32.54162202 198.37740062 32.52783382 200.78459917 32.50793457 203.1930542 C32.51685746 203.88655244 32.52578034 204.58005067 32.53497362 205.29456401 C32.44979169 210.62737832 30.84111475 213.65217475 28 218 C27.34 218 26.68 218 26 218 C25.690625 219.1446875 25.690625 219.1446875 25.375 220.3125 C22.47219429 228.09729713 17.95031521 235.17303503 13.640625 242.25 C12.39283315 244.34153682 11.17808295 246.44035253 9.984375 248.5625 C9.63487793 249.18278076 9.28538086 249.80306152 8.92529297 250.44213867 C7.9233307 252.22643271 6.92638054 254.01353852 5.9296875 255.80078125 C4 259 4 259 0 264 C0 176.88 0 89.76 0 0 Z " fill="#02FEFE" transform="translate(141,244)"/>
<path d="M0 0 C1.31806641 -0.00315216 2.63613281 -0.00630432 3.99414062 -0.009552 C5.44401075 -0.00776222 6.89388058 -0.00571127 8.34375 -0.00341797 C9.81966162 -0.00409104 11.29557313 -0.0050611 12.77148438 -0.00631714 C15.86850029 -0.00779395 18.96548742 -0.00564011 22.0625 -0.00097656 C26.04083549 0.00472073 30.01910352 0.00144163 33.99743652 -0.00454903 C37.04622917 -0.0081551 40.09500571 -0.00701584 43.14379883 -0.00442123 C44.61108406 -0.00375209 46.07837074 -0.00457994 47.5456543 -0.00690079 C49.59293593 -0.00942804 51.64022266 -0.00489607 53.6875 0 C55.43836914 0.00119339 55.43836914 0.00119339 57.22460938 0.00241089 C59.84375 0.12939453 59.84375 0.12939453 60.84375 1.12939453 C60.9526246 3.06533104 60.99064834 5.0052666 61.00196838 6.94422913 C61.0117572 8.2077269 61.02154602 9.47122467 61.03163147 10.77301025 C61.03753643 12.18615685 61.04334683 13.59930384 61.04907227 15.01245117 C61.05864537 16.49041522 61.06865511 17.96837649 61.07907104 19.44633484 C61.10618772 23.47092299 61.12716053 27.49552295 61.14707303 31.52015233 C61.16889103 35.72158176 61.19630013 39.92297451 61.22312927 44.12437439 C61.27311295 52.0858305 61.31803065 60.04730691 61.36115164 68.00880283 C61.41047562 77.07034647 61.46541163 86.13185332 61.52083123 95.1933614 C61.63473836 113.83867165 61.74155829 132.48401658 61.84375 151.12939453 C62.6275 150.61376953 63.41125 150.09814453 64.21875 149.56689453 C65.085 149.09251953 65.95125 148.61814453 66.84375 148.12939453 C67.50375 148.45939453 68.16375 148.78939453 68.84375 149.12939453 C67.78125 150.56689453 67.78125 150.56689453 65.84375 152.12939453 C63.53375 152.45939453 61.22375 152.78939453 58.84375 153.12939453 C58.84375 103.29939453 58.84375 53.46939453 58.84375 2.12939453 C37.72375 2.12939453 16.60375 2.12939453 -5.15625 2.12939453 C-4.82625 88.25939453 -4.49625 174.38939453 -4.15625 263.12939453 C1.88152972 254.52202977 1.88152972 254.52202977 6.96875 245.50439453 C9.36216652 240.88740942 11.84815598 236.41023327 14.6796875 232.04736328 C17.00267608 228.21988881 18.9026206 224.16033559 20.84375 220.12939453 C21.50375 220.12939453 22.16375 220.12939453 22.84375 220.12939453 C23.070625 219.24251953 23.2975 218.35564453 23.53125 217.44189453 C25.88129292 211.51083382 30.51577346 208.4645004 35.84375 205.25439453 C36.40698975 204.9141626 36.97022949 204.57393066 37.55053711 204.22338867 C42.49509073 201.26736821 47.55910835 198.54610215 52.6484375 195.84814453 C59.59710703 192.11047388 66.35223652 188.03826456 73.09375 183.94189453 C75.90149667 182.2465673 78.69782411 180.66875681 81.65625 179.25439453 C86.55707523 176.88882309 91.09907686 173.93081669 95.6953125 171.03173828 C99.89452485 168.49449707 103.98408727 166.06394506 108.84375 165.12939453 C108.84375 164.46939453 108.84375 163.80939453 108.84375 163.12939453 C111.58304378 161.58865346 114.33662839 160.07546595 117.09375 158.56689453 C117.87105469 158.12925781 118.64835937 157.69162109 119.44921875 157.24072266 C120.20332031 156.83144531 120.95742188 156.42216797 121.734375 156.00048828 C122.77126465 155.42705688 122.77126465 155.42705688 123.82910156 154.84204102 C126.28376595 153.97374662 127.43171311 154.2334681 129.84375 155.12939453 C131.25152915 155.99487743 132.62502518 156.91746606 133.96875 157.87939453 C137.15154432 160.06724006 140.30632555 161.94391936 143.78125 163.62939453 C147.41233352 165.39648384 150.9636589 167.24724786 154.46875 169.25439453 C155.30664062 169.73134766 156.14453125 170.20830078 157.0078125 170.69970703 C157.61367188 171.17150391 158.21953125 171.64330078 158.84375 172.12939453 C158.84375 173.11939453 158.84375 174.10939453 158.84375 175.12939453 C157.84601563 175.67724609 156.84828125 176.22509766 155.8203125 176.78955078 C143.20614468 183.74324581 130.73119405 190.92989222 118.26660156 198.14746094 C112.58604471 201.43667353 106.90310021 204.72174237 101.21875 208.00439453 C100.12256348 208.63748535 99.02637695 209.27057617 97.89697266 209.92285156 C91.58852925 213.56126765 85.25934764 217.15762166 78.90039062 220.70678711 C71.72963398 224.72582012 64.64561821 228.8943619 57.55078125 233.04541016 C52.28915707 236.12302683 47.02059279 239.18411833 41.71875 242.19189453 C35.78552685 245.5668217 29.90639978 249.02946752 24.03125 252.50439453 C22.6246814 253.3342688 22.6246814 253.3342688 21.18969727 254.1809082 C16.69590502 256.83535914 12.21385798 259.5057447 7.7578125 262.22314453 C6.97768799 262.69445801 6.19756348 263.16577148 5.39379883 263.65136719 C3.93539099 264.53325439 2.48181223 265.423193 1.03393555 266.32226562 C-0.65145072 267.33623785 -2.39998372 268.24384652 -4.15625 269.12939453 C-5.14625 268.79939453 -6.13625 268.46939453 -7.15625 268.12939453 C-7.17911537 234.13219561 -7.19674772 200.13499859 -7.20731533 166.13779369 C-7.20856611 162.12840216 -7.20986042 158.11901065 -7.21118164 154.10961914 C-7.21144395 153.31138731 -7.21170626 152.51315547 -7.21197652 151.6907348 C-7.21633342 138.74865531 -7.22422107 125.80658025 -7.2334028 112.86450339 C-7.2427388 99.59476322 -7.2483055 86.32502538 -7.25033849 73.05528206 C-7.25171383 64.86045869 -7.25606501 56.66564781 -7.26416647 48.47082829 C-7.27005391 42.19777899 -7.2707091 35.92473931 -7.26935768 29.65168762 C-7.26963422 27.07040263 -7.27164209 24.4891172 -7.27545547 21.90783501 C-7.28038545 18.40053933 -7.27925087 14.89329837 -7.27650452 11.38600159 C-7.27941736 10.35003123 -7.2823302 9.31406088 -7.28533131 8.24669749 C-7.28334026 7.31463982 -7.28134921 6.38258215 -7.27929783 5.42228031 C-7.27967755 4.61157741 -7.28005727 3.8008745 -7.2804485 2.96560484 C-6.99803385 -1.20974918 -3.40629845 0.00232173 0 0 Z " fill="#06BBBB" transform="translate(146.15625,241.87060546875)"/>
<path d="M0 0 C1.31806641 -0.00315216 2.63613281 -0.00630432 3.99414062 -0.009552 C5.44401075 -0.00776222 6.89388058 -0.00571127 8.34375 -0.00341797 C9.81966162 -0.00409104 11.29557313 -0.0050611 12.77148438 -0.00631714 C15.86850029 -0.00779395 18.96548742 -0.00564011 22.0625 -0.00097656 C26.04083549 0.00472073 30.01910352 0.00144163 33.99743652 -0.00454903 C37.04622917 -0.0081551 40.09500571 -0.00701584 43.14379883 -0.00442123 C44.61108406 -0.00375209 46.07837074 -0.00457994 47.5456543 -0.00690079 C49.59293593 -0.00942804 51.64022266 -0.00489607 53.6875 0 C55.43836914 0.00119339 55.43836914 0.00119339 57.22460938 0.00241089 C59.84375 0.12939453 59.84375 0.12939453 60.84375 1.12939453 C60.9526246 3.06533104 60.99064834 5.0052666 61.00196838 6.94422913 C61.0117572 8.2077269 61.02154602 9.47122467 61.03163147 10.77301025 C61.03753643 12.18615685 61.04334683 13.59930384 61.04907227 15.01245117 C61.05864537 16.49041522 61.06865511 17.96837649 61.07907104 19.44633484 C61.10618772 23.47092299 61.12716053 27.49552295 61.14707303 31.52015233 C61.16889103 35.72158176 61.19630013 39.92297451 61.22312927 44.12437439 C61.27311295 52.0858305 61.31803065 60.04730691 61.36115164 68.00880283 C61.41047562 77.07034647 61.46541163 86.13185332 61.52083123 95.1933614 C61.63473836 113.83867165 61.74155829 132.48401658 61.84375 151.12939453 C62.6275 150.61376953 63.41125 150.09814453 64.21875 149.56689453 C65.085 149.09251953 65.95125 148.61814453 66.84375 148.12939453 C67.50375 148.45939453 68.16375 148.78939453 68.84375 149.12939453 C67.78125 150.56689453 67.78125 150.56689453 65.84375 152.12939453 C63.53375 152.45939453 61.22375 152.78939453 58.84375 153.12939453 C58.84375 103.29939453 58.84375 53.46939453 58.84375 2.12939453 C37.72375 2.12939453 16.60375 2.12939453 -5.15625 2.12939453 C-4.82625 88.91939453 -4.49625 175.70939453 -4.15625 265.12939453 C-3.16625 265.12939453 -2.17625 265.12939453 -1.15625 265.12939453 C-1.15625 264.46939453 -1.15625 263.80939453 -1.15625 263.12939453 C0.16375 263.12939453 1.48375 263.12939453 2.84375 263.12939453 C2.34875 261.64439453 2.34875 261.64439453 1.84375 260.12939453 C3.82375 260.12939453 5.80375 260.12939453 7.84375 260.12939453 C7.84375 259.46939453 7.84375 258.80939453 7.84375 258.12939453 C9.16375 258.12939453 10.48375 258.12939453 11.84375 258.12939453 C11.84375 257.46939453 11.84375 256.80939453 11.84375 256.12939453 C13.49375 255.79939453 15.14375 255.46939453 16.84375 255.12939453 C16.84375 254.46939453 16.84375 253.80939453 16.84375 253.12939453 C18.49375 253.12939453 20.14375 253.12939453 21.84375 253.12939453 C17.25097615 257.15646137 12.10581707 259.95414572 6.78125 262.87939453 C5.88341797 263.38599609 4.98558594 263.89259766 4.06054688 264.41455078 C3.19365234 264.89279297 2.32675781 265.37103516 1.43359375 265.86376953 C0.64847412 266.29915039 -0.13664551 266.73453125 -0.94555664 267.18310547 C-3.15625 268.12939453 -3.15625 268.12939453 -7.15625 268.12939453 C-7.17911537 234.13219561 -7.19674772 200.13499859 -7.20731533 166.13779369 C-7.20856611 162.12840216 -7.20986042 158.11901065 -7.21118164 154.10961914 C-7.21144395 153.31138731 -7.21170626 152.51315547 -7.21197652 151.6907348 C-7.21633342 138.74865531 -7.22422107 125.80658025 -7.2334028 112.86450339 C-7.2427388 99.59476322 -7.2483055 86.32502538 -7.25033849 73.05528206 C-7.25171383 64.86045869 -7.25606501 56.66564781 -7.26416647 48.47082829 C-7.27005391 42.19777899 -7.2707091 35.92473931 -7.26935768 29.65168762 C-7.26963422 27.07040263 -7.27164209 24.4891172 -7.27545547 21.90783501 C-7.28038545 18.40053933 -7.27925087 14.89329837 -7.27650452 11.38600159 C-7.27941736 10.35003123 -7.2823302 9.31406088 -7.28533131 8.24669749 C-7.28334026 7.31463982 -7.28134921 6.38258215 -7.27929783 5.42228031 C-7.27967755 4.61157741 -7.28005727 3.8008745 -7.2804485 2.96560484 C-6.99803385 -1.20974918 -3.40629845 0.00232173 0 0 Z " fill="#B5DDDD" transform="translate(146.15625,241.87060546875)"/>
<path d="M0 0 C0.66 0.33 1.32 0.66 2 1 C2 136.63 2 272.26 2 412 C1.34 412.33 0.68 412.66 0 413 C0 278.36 0 143.72 0 5 C-1.32 5.99 -2.64 6.98 -4 8 C-4.66 8 -5.32 8 -6 8 C-6 8.66 -6 9.32 -6 10 C-7.95603851 10.52938657 -9.91492289 11.04826801 -11.875 11.5625 C-12.96554687 11.85253906 -14.05609375 12.14257812 -15.1796875 12.44140625 C-18 13 -18 13 -20 12 C-16.71619398 9.96617319 -13.42178728 7.95020438 -10.125 5.9375 C-9.18785156 5.35677734 -8.25070312 4.77605469 -7.28515625 4.17773438 C-6.38925781 3.63310547 -5.49335938 3.08847656 -4.5703125 2.52734375 C-3.74289551 2.01937256 -2.91547852 1.51140137 -2.06298828 0.98803711 C-1.04180908 0.49895874 -1.04180908 0.49895874 0 0 Z " fill="#8DE6E5" transform="translate(305,3)"/>
<path d="M0 0 C20.79 0 41.58 0 63 0 C58.92611197 4.07388803 54.8235917 7.70966869 50.37304688 11.33789062 C48.05794595 13.24010731 45.8775058 15.12950639 43.81640625 17.30859375 C42 19 42 19 39 19 C39 19.99 39 20.98 39 22 C37.36368108 23.04892238 35.69514137 24.04906703 34 25 C33.67 25.66 33.34 26.32 33 27 C29.50049486 26.40897246 27.71219589 25.13977934 25.125 22.75 C24.43277344 22.1209375 23.74054688 21.491875 23.02734375 20.84375 C22.35832031 20.2353125 21.68929687 19.626875 21 19 C19.9017798 18.07621746 18.79831599 17.15859762 17.6875 16.25 C15 14 15 14 13.6484375 12.609375 C10.75328148 9.78282457 7.47168496 7.41416983 4.27734375 4.9375 C2 3 2 3 0 0 Z " fill="#05ACAC" transform="translate(142,244)"/>
<path d="M0 0 C0 0.66 0 1.32 0 2 C-3 4 -3 4 -6 4 C-6 114.55 -6 225.1 -6 339 C-6.99 339 -7.98 339 -9 339 C-9.00977996 296.39101268 -8.98814738 253.78214446 -8.92420971 211.17320077 C-8.91669339 206.14622922 -8.90943796 201.11925732 -8.90234375 196.09228516 C-8.900927 195.09147845 -8.89951025 194.09067174 -8.89805056 193.05953756 C-8.87571392 176.84094071 -8.87452531 160.62240744 -8.88111137 144.4037995 C-8.88739685 127.76993949 -8.87105064 111.13621352 -8.83356392 94.50239396 C-8.81113778 84.23306209 -8.80650029 73.96403523 -8.82440336 63.69469318 C-8.83498081 56.65873623 -8.82363446 49.62303065 -8.79483847 42.58712545 C-8.77886219 38.52374485 -8.77275299 34.46096181 -8.79260826 30.39758492 C-8.81056071 26.68008165 -8.80109068 22.96371131 -8.76946117 19.24630859 C-8.75978345 17.25897498 -8.77976098 15.27156597 -8.80066097 13.28431869 C-8.69042296 4.8901868 -8.69042296 4.8901868 -6.68399262 2.30322504 C-4.52434184 0.78658335 -2.65435347 0 0 0 Z " fill="#65B7B6" transform="translate(247,38)"/>
<path d="M0 0 C0 0.66 0 1.32 0 2 C-1.65532623 3.01866229 -3.32260138 4.01810813 -5 5 C-5.33 5.66 -5.66 6.32 -6 7 C-6.99 7.33 -7.98 7.66 -9 8 C-10.37250385 10.74500771 -10.1313704 12.93466661 -10.1386652 16.00890541 C-10.14687687 17.94293801 -10.14687687 17.94293801 -10.15525442 19.91604197 C-10.15633077 21.36041993 -10.15731543 22.80479795 -10.15821838 24.24917603 C-10.16278119 25.7729548 -10.1677808 27.29673232 -10.17318195 28.82050836 C-10.18680449 33.02316765 -10.19419328 37.22581882 -10.20060861 41.42849445 C-10.20859454 45.95475534 -10.2222985 50.48099923 -10.23532104 55.00724792 C-10.25710951 62.85441177 -10.27524531 70.70157731 -10.29092598 78.54875565 C-10.31360306 89.89456938 -10.34174886 101.24036432 -10.37124526 112.58616214 C-10.41894772 130.99232897 -10.46220469 149.39850347 -10.50268555 167.8046875 C-10.54202698 185.68848264 -10.58344995 203.57227095 -10.62768555 221.45605469 C-10.63040982 222.55773061 -10.63313409 223.65940653 -10.63594092 224.79446657 C-10.64962017 230.32104768 -10.66334049 235.84762869 -10.67708123 241.37420964 C-10.79108769 287.24945887 -10.8978878 333.12472286 -11 379 C-10.01 379 -9.02 379 -8 379 C-7.34 380.32 -6.68 381.64 -6 383 C-6.556875 382.649375 -7.11375 382.29875 -7.6875 381.9375 C-11.45068629 380.41188394 -14.1359154 381.67356804 -17.8125 383.0625 C-18.8953125 383.5265625 -18.8953125 383.5265625 -20 384 C-20 383.34 -20 382.68 -20 382 C-19.360625 381.896875 -18.72125 381.79375 -18.0625 381.6875 C-17.381875 381.460625 -16.70125 381.23375 -16 381 C-15.67 380.01 -15.34 379.02 -15 378 C-14.01 378.33 -13.02 378.66 -12 379 C-12.33 257.89 -12.66 136.78 -13 12 C-15.64 12 -18.28 12 -21 12 C-17.15651589 8.74951058 -13.17601471 6.21217131 -8.8125 3.75 C-8.18408203 3.38648438 -7.55566406 3.02296875 -6.90820312 2.6484375 C-2.25352444 0 -2.25352444 0 0 0 Z " fill="#08F0EE" transform="translate(285,16)"/>
<path d="M0 0 C21.78 0 43.56 0 66 0 C66.33 49.5 66.66 99 67 150 C68.65 149.01 70.3 148.02 72 147 C72.66 147.33 73.32 147.66 74 148 C72.9375 149.4375 72.9375 149.4375 71 151 C68.69 151.33 66.38 151.66 64 152 C64 102.17 64 52.34 64 1 C42.88 1 21.76 1 0 1 C0 0.67 0 0.34 0 0 Z " fill="#6EBFBF" transform="translate(141,243)"/>
<path d="M0 0 C0.33 0 0.66 0 1 0 C1 119.46 1 238.92 1 362 C-0.98 361.34 -2.96 360.68 -5 360 C-5.33 359.34 -5.66 358.68 -6 358 C-4.35 358 -2.7 358 -1 358 C-1.00037972 357.24747424 -1.00075944 356.49494848 -1.00115067 355.71961892 C-1.0235078 311.16149471 -1.04067595 266.60337112 -1.05106533 222.04524244 C-1.0523161 216.70024625 -1.05361042 211.35525008 -1.05493164 206.01025391 C-1.05519395 204.94611967 -1.05545626 203.88198543 -1.05572652 202.7856047 C-1.06008295 185.53426149 -1.06797035 168.28292159 -1.0771528 151.03158034 C-1.0864901 133.34235678 -1.09205577 115.65313496 -1.09408849 97.96390903 C-1.09546356 87.04055393 -1.09981329 76.1172082 -1.10791647 65.19385599 C-1.11318486 57.7127553 -1.11480408 50.23165949 -1.11350138 42.75055708 C-1.11285815 38.42838415 -1.11387386 34.10622766 -1.11920547 29.78405762 C-1.12404437 25.83267449 -1.12433539 21.88131896 -1.12089889 17.92993461 C-1.12047369 16.49518386 -1.1217653 15.06043145 -1.12488318 13.62568404 C-1.12885611 11.68575319 -1.12615255 9.74581202 -1.12304783 7.80587959 C-1.12342755 6.72519553 -1.12380727 5.64451147 -1.1241985 4.53107941 C-1 2 -1 2 0 0 Z " fill="#00C0C2" transform="translate(272,33)"/>
<path d="M0 0 C0.66 0.33 1.32 0.66 2 1 C2.09344706 24.86968631 2.1639811 48.7393452 2.20724869 72.60917759 C2.22787269 83.69239479 2.2559903 94.77549833 2.30175781 105.85864258 C2.3416304 115.51886809 2.36743399 125.17901127 2.37635398 134.83931679 C2.38156798 139.95426146 2.3938196 145.06897062 2.42292023 150.1838398 C2.45009588 154.99944103 2.4584406 159.81471 2.45243073 164.63038063 C2.45352999 166.39643408 2.46147107 168.16249879 2.4768219 169.92848587 C2.49678394 172.34368521 2.49191723 174.75763739 2.48101807 177.17286682 C2.49266943 177.86841142 2.5043208 178.56395601 2.51632524 179.28057772 C2.45130123 184.627391 0.85005652 187.644041 -2 192 C-2.99 192 -3.98 192 -5 192 C-3.3349175 187.26091904 -3.3349175 187.26091904 -1.44832897 185.79116344 C0.79213925 183.02035319 0.40288488 180.06270246 0.36076355 176.65388489 C0.36332682 175.89994798 0.3658901 175.14601107 0.36853105 174.36922759 C0.37348398 171.83553577 0.35695155 169.30243601 0.34057617 166.76879883 C0.33973022 164.95557164 0.34020441 163.14234341 0.34190369 161.32911682 C0.34276633 156.39961006 0.32509712 151.47032119 0.30418181 146.54086518 C0.28545975 141.3918939 0.28366811 136.24291792 0.28010559 131.09391785 C0.27077197 121.34041205 0.24614036 111.58700684 0.21605712 101.83354539 C0.18255408 90.73092008 0.16603741 79.62829003 0.15097082 68.52562678 C0.11959196 45.68369537 0.06680587 22.84185331 0 0 Z " fill="#0EF9F9" transform="translate(171,270)"/>
<path d="M0 0 C0.33 0 0.66 0 1 0 C1.33 27.72 1.66 55.44 2 84 C2.99 84 3.98 84 5 84 C5 83.34 5 82.68 5 82 C6.32 82 7.64 82 9 82 C8.67 81.01 8.34 80.02 8 79 C9.98 79 11.96 79 14 79 C14 78.34 14 77.68 14 77 C15.32 77 16.64 77 18 77 C18 76.34 18 75.68 18 75 C20.475 74.505 20.475 74.505 23 74 C23 73.34 23 72.68 23 72 C24.65 72 26.3 72 28 72 C23.40722615 76.02706684 18.26206707 78.82475119 12.9375 81.75 C12.03966797 82.25660156 11.14183594 82.76320313 10.21679688 83.28515625 C8.91645508 84.00251953 8.91645508 84.00251953 7.58984375 84.734375 C6.80472412 85.16975586 6.01960449 85.60513672 5.21069336 86.05371094 C3 87 3 87 -1 87 C-1.02312269 75.80426756 -1.04091471 64.60854076 -1.05181217 53.41278934 C-1.05704116 48.21471885 -1.0641391 43.01666464 -1.07543945 37.81860352 C-1.08626776 32.80657732 -1.09227671 27.79456682 -1.09487724 22.78252983 C-1.09673159 20.86587718 -1.1003524 18.94922543 -1.10573006 17.03257942 C-1.11293975 14.35771928 -1.11399097 11.68292486 -1.11352539 9.00805664 C-1.11712067 8.2074884 -1.12071594 7.40692017 -1.12442017 6.58209229 C-1.11405216 1.11405216 -1.11405216 1.11405216 0 0 Z " fill="#A0D6D7" transform="translate(140,423)"/>
<path d="M0 0 C1.65 0 3.3 0 5 0 C5 0.66 5 1.32 5 2 C5.66 2.33 6.32 2.66 7 3 C6.01 3.99 5.02 4.98 4 6 C3.01 5.67 2.02 5.34 1 5 C0.01 5.495 0.01 5.495 -1 6 C-1.36548445 7.32488113 -1.6937566 8.66018514 -2 10 C-2.63654342 11.3479743 -3.29605388 12.68596724 -4 14 C-4.99 13.34 -5.98 12.68 -7 12 C-8.10420182 14.12953208 -9.0523375 16.15701249 -9.8125 18.4375 C-11.32724385 21.70615779 -13.30632133 23.63481873 -16 26 C-16.99 26.33 -17.98 26.66 -19 27 C-17.61638131 22.57242019 -15.15757738 19.37264785 -12.33984375 15.76953125 C-10.94046713 14.03375555 -10.94046713 14.03375555 -10 12 C-9.34 12 -8.68 12 -8 12 C-7.773125 11.278125 -7.54625 10.55625 -7.3125 9.8125 C-5.74962296 6.46347777 -3.66414749 4.52752454 -1 2 C-0.67 1.34 -0.34 0.68 0 0 Z " fill="#E7E7E5" transform="translate(62,121)"/>
<path d="M0 0 C1.98 0 3.96 0 6 0 C3.64573495 2.62141228 1.21822144 4.09984065 -1.89453125 5.7265625 C-8.2556245 9.1162108 -14.47114421 12.72817278 -20.6875 16.375 C-21.78255859 17.01566406 -22.87761719 17.65632813 -24.00585938 18.31640625 C-26.67141945 19.87616629 -29.33611385 21.43738343 -32 23 C-32.33 22.34 -32.66 21.68 -33 21 C-32.67 20.34 -32.34 19.68 -32 19 C-28.9375 18.375 -28.9375 18.375 -26 18 C-26 17.01 -26 16.02 -26 15 C-24.35 15 -22.7 15 -21 15 C-21 14.01 -21 13.02 -21 12 C-20.195625 11.71125 -19.39125 11.4225 -18.5625 11.125 C-15.8673532 10.26737432 -15.8673532 10.26737432 -15 8 C-13.02 8 -11.04 8 -9 8 C-9 7.01 -9 6.02 -9 5 C-8.01 5 -7.02 5 -6 5 C-6 4.34 -6 3.68 -6 3 C-4.02 3 -2.04 3 0 3 C0 2.01 0 1.02 0 0 Z " fill="#70C7C7" transform="translate(227,457)"/>
<path d="M0 0 C5.57916295 2.23166518 6.55301827 3.46968116 10 8 C7.6875 8.625 7.6875 8.625 5 9 C4.01 8.34 3.02 7.68 2 7 C2.01160156 7.77601563 2.02320313 8.55203125 2.03515625 9.3515625 C2.10418029 17.61472608 1.69121931 25.76708427 1 34 C0.67 34 0.34 34 0 34 C0 22.78 0 11.56 0 0 Z " fill="#979795" transform="translate(339,125)"/>
<path d="M0 0 C1.231394 2.46278801 1.07159196 4.2795055 1 7 C0.236875 6.773125 -0.52625 6.54625 -1.3125 6.3125 C-3.93478222 5.72592701 -3.93478222 5.72592701 -5.63598633 7.01098633 C-7.6801694 9.99182748 -7.48010055 13.01659984 -7.51171875 16.51171875 C-7.52966995 17.23994339 -7.54762115 17.96816803 -7.56611633 18.71846008 C-7.62024213 21.04141471 -7.6541208 23.36416366 -7.6875 25.6875 C-7.72067125 27.26370051 -7.75516073 28.83987388 -7.79101562 30.41601562 C-7.8759693 34.27719536 -7.94276876 38.13831387 -8 42 C-8.33 42 -8.66 42 -9 42 C-9.12355727 36.92806922 -9.21431615 31.85701304 -9.2746582 26.78393555 C-9.29981005 25.05819441 -9.33393619 23.33255988 -9.37719727 21.60717773 C-9.43782433 19.12717419 -9.46620101 16.64857778 -9.48828125 14.16796875 C-9.51408768 13.39599655 -9.5398941 12.62402435 -9.56648254 11.82865906 C-9.56762695 9.64526367 -9.56762695 9.64526367 -9 6 C-6.61401367 4.0949707 -6.61401367 4.0949707 -4 3 C-2.65368175 2.01755155 -1.31558703 1.02323436 0 0 Z " fill="#9A9A98" transform="translate(348,399)"/>
<path d="M0 0 C1.46449296 4.44229531 -0.03304259 6.83912856 -2 11 C-2.33 11.99 -2.66 12.98 -3 14 C-2.34 14.66 -1.68 15.32 -1 16 C-2.28524261 16.86380259 -3.57842419 17.71580369 -4.875 18.5625 C-5.59429687 19.03816406 -6.31359375 19.51382812 -7.0546875 20.00390625 C-7.69664062 20.33261719 -8.33859375 20.66132813 -9 21 C-9.66 20.67 -10.32 20.34 -11 20 C-7.36433437 13.31587248 -3.70775764 6.64443293 0 0 Z " fill="#0EF2F1" transform="translate(185,431)"/>
<path d="M0 0 C1.32 0.66 2.64 1.32 4 2 C4 9.59 4 17.18 4 25 C1.87598962 20.75197923 1.7623893 17.83238937 1.875 13.25 C1.88402344 12.55261719 1.89304687 11.85523438 1.90234375 11.13671875 C1.92580112 9.42433042 1.96166896 7.71211996 2 6 C1.01 5.67 0.02 5.34 -1 5 C-0.67 3.35 -0.34 1.7 0 0 Z " fill="#E5E5E4" transform="translate(104,360)"/>
<path d="M0 0 C-1.375 1.5 -1.375 1.5 -3 3 C-3.66 3 -4.32 3 -5 3 C-5 3.66 -5 4.32 -5 5 C-6.95603851 5.52938657 -8.91492289 6.04826801 -10.875 6.5625 C-11.96554687 6.85253906 -13.05609375 7.14257812 -14.1796875 7.44140625 C-17 8 -17 8 -19 7 C-17.27728773 5.84448547 -15.54653083 4.70095881 -13.8125 3.5625 C-12.84957031 2.92441406 -11.88664062 2.28632813 -10.89453125 1.62890625 C-6.86506127 -0.63869022 -4.42691697 -1.47563899 0 0 Z " fill="#1AF4F1" transform="translate(304,8)"/>
<path d="M0 0 C0 0.66 0 1.32 0 2 C-1.65532623 3.01866229 -3.32260138 4.01810813 -5 5 C-5.33 5.66 -5.66 6.32 -6 7 C-6.969375 7.12375 -7.93875 7.2475 -8.9375 7.375 C-12.11582828 7.6491645 -12.11582828 7.6491645 -13.375 10.0625 C-13.684375 11.0215625 -13.684375 11.0215625 -14 12 C-16.31 12 -18.62 12 -21 12 C-17.15651589 8.74951058 -13.17601471 6.21217131 -8.8125 3.75 C-8.18408203 3.38648438 -7.55566406 3.02296875 -6.90820312 2.6484375 C-2.25352444 0 -2.25352444 0 0 0 Z " fill="#87E4E3" transform="translate(285,16)"/>
<path d="M0 0 C1.65 0 3.3 0 5 0 C1.18622974 3.21311954 -2.75276084 5.78206877 -7.0625 8.25 C-7.97999023 8.79527344 -7.97999023 8.79527344 -8.91601562 9.3515625 C-12.30747867 11.30211206 -13.98903556 12 -18 12 C-18 11.34 -18 10.68 -18 10 C-16.68 10 -15.36 10 -14 10 C-14.33 9.01 -14.66 8.02 -15 7 C-13.02 7 -11.04 7 -9 7 C-9 6.34 -9 5.68 -9 5 C-7.68 5 -6.36 5 -5 5 C-5 4.34 -5 3.68 -5 3 C-3.35 2.67 -1.7 2.34 0 2 C0 1.34 0 0.68 0 0 Z " fill="#81C8C7" transform="translate(163,495)"/>
<path d="M0 0 C0.99 0.33 1.98 0.66 3 1 C2.67 2.65 2.34 4.3 2 6 C1.01 5.34 0.02 4.68 -1 4 C-4.93552873 7.67316014 -6.87480631 10.74909611 -8 16 C-9.65 14.68 -11.3 13.36 -13 12 C-12.278125 11.443125 -11.55625 10.88625 -10.8125 10.3125 C-8.02134888 8.01755352 -5.52025033 5.5865727 -3 3 C-2 2 -1 1 0 0 Z " fill="#E7E7E7" transform="translate(81,103)"/>
<path d="M0 0 C0.66 0 1.32 0 2 0 C2 12.21 2 24.42 2 37 C1.01 37.495 1.01 37.495 0 38 C-0.99 37.34 -1.98 36.68 -3 36 C-2.26656372 35.4898938 -2.26656372 35.4898938 -1.51831055 34.96948242 C0.75190965 32.02465748 0.37105161 29.05030726 0.29296875 25.48828125 C0.28872391 24.76005661 0.28447906 24.03183197 0.28010559 23.28153992 C0.26332733 20.95814873 0.22567855 18.6356285 0.1875 16.3125 C0.17245197 14.73634066 0.15876377 13.16016771 0.14648438 11.58398438 C0.11342685 7.72232123 0.06165194 3.86130822 0 0 Z " fill="#A09F9E" transform="translate(105,405)"/>
<path d="M0 0 C0.66 0 1.32 0 2 0 C1.835 0.928125 1.67 1.85625 1.5 2.8125 C0.92251612 5.95621353 0.92251612 5.95621353 1 9 C0.68911632 10.67099977 0.35919668 12.33871537 0 14 C-2.31 14.66 -4.62 15.32 -7 16 C-4.69 10.72 -2.38 5.44 0 0 Z " fill="#E3E3E0" transform="translate(363,320)"/>
<path d="M0 0 C0.33 0.99 0.66 1.98 1 3 C1.66 3.33 2.32 3.66 3 4 C2 7 2 7 0 8 C0 8.66 0 9.32 0 10 C-1.32 10 -2.64 10 -4 10 C-4 10.66 -4 11.32 -4 12 C-4.99 12 -5.98 12 -7 12 C-5.61735163 9.13132769 -4.07851447 6.43975968 -2.375 3.75 C-1.92898437 3.04359375 -1.48296875 2.3371875 -1.0234375 1.609375 C-0.68570313 1.07828125 -0.34796875 0.5471875 0 0 Z " fill="#05C1C2" transform="translate(149,495)"/>
<path d="M0 0 C0 0.66 0 1.32 0 2 C-1.2065625 2.4021875 -1.2065625 2.4021875 -2.4375 2.8125 C-3.283125 3.204375 -4.12875 3.59625 -5 4 C-5.33 4.99 -5.66 5.98 -6 7 C-6.99 7 -7.98 7 -9 7 C-9.33 7.99 -9.66 8.98 -10 10 C-13.22791555 12.1519437 -14.28400809 12.20086443 -18 12 C-18 11.34 -18 10.68 -18 10 C-15.36 9.34 -12.72 8.68 -10 8 C-9.67 6.68 -9.34 5.36 -9 4 C-6.41724401 1.90272446 -3.38553466 0 0 0 Z " fill="#1FF0ED" transform="translate(224,385)"/>
<path d="M0 0 C0.8971875 0.5259375 0.8971875 0.5259375 1.8125 1.0625 C1.1525 1.0625 0.4925 1.0625 -0.1875 1.0625 C-0.31125 1.701875 -0.435 2.34125 -0.5625 3 C-0.76875 3.680625 -0.975 4.36125 -1.1875 5.0625 C-3.89629335 6.41689668 -6.19683268 6.12751451 -9.1875 6.0625 C-9.5175 5.4025 -9.8475 4.7425 -10.1875 4.0625 C-9.5275 3.0725 -8.8675 2.0825 -8.1875 1.0625 C-8.1875 1.7225 -8.1875 2.3825 -8.1875 3.0625 C-7.754375 2.588125 -7.32125 2.11375 -6.875 1.625 C-4.48963971 -0.58366693 -3.06354769 -1.31294901 0 0 Z " fill="#ABAAA7" transform="translate(151.1875,128.9375)"/>
<path d="M0 0 C0.66 0 1.32 0 2 0 C0.68332049 2.67499315 -0.69845762 5.29441063 -2.1640625 7.890625 C-2.56367188 8.59960938 -2.96328125 9.30859375 -3.375 10.0390625 C-3.7875 10.76867187 -4.2 11.49828125 -4.625 12.25 C-5.04523438 12.99507813 -5.46546875 13.74015625 -5.8984375 14.5078125 C-6.93143065 16.33902763 -7.96559955 18.16957944 -9 20 C-10 17 -10 17 -9.14453125 14.73046875 C-3 3 -3 3 0 0 Z " fill="#0EF4F5" transform="translate(158,476)"/>
<path d="M0 0 C0.78375 0.04125 1.5675 0.0825 2.375 0.125 C-0.07866082 2.89154374 -2.74155989 4.41097123 -6 6.125 C-8.85475026 7.63495055 -11.63265421 9.12991273 -14.3515625 10.875 C-15.47691406 11.49375 -15.47691406 11.49375 -16.625 12.125 C-17.285 11.795 -17.945 11.465 -18.625 11.125 C-17.820625 10.856875 -17.01625 10.58875 -16.1875 10.3125 C-15.341875 9.920625 -14.49625 9.52875 -13.625 9.125 C-13.295 8.135 -12.965 7.145 -12.625 6.125 C-10.84765625 5.02734375 -10.84765625 5.02734375 -8.6875 4.0625 C-5.50133741 2.6226552 -3.39846159 0.1618315 0 0 Z " fill="#0FF4F4" transform="translate(211.625,428.875)"/>
<path d="M0 0 C1.32 0.33 2.64 0.66 4 1 C-1.28 3.97 -6.56 6.94 -12 10 C-12.33 9.01 -12.66 8.02 -13 7 C-12.34 7 -11.68 7 -11 7 C-11 6.34 -11 5.68 -11 5 C-9.7934375 4.5359375 -9.7934375 4.5359375 -8.5625 4.0625 C-6.10919595 3.23664655 -6.10919595 3.23664655 -5 2 C-3.33382885 1.95936168 -1.66611905 1.957279 0 2 C0 1.34 0 0.68 0 0 Z " fill="#80C7C5" transform="translate(292,421)"/>
<path d="M0 0 C5.75 0.875 5.75 0.875 8 2 C8 2.66 8 3.32 8 4 C9.65 4 11.3 4 13 4 C13 4.99 13 5.98 13 7 C13.61875 7.103125 14.2375 7.20625 14.875 7.3125 C17 8 17 8 19 11 C18.48824219 10.7421875 17.97648437 10.484375 17.44921875 10.21875 C15.49937711 9.24849388 13.5419559 8.29347349 11.58203125 7.34375 C10.32545289 6.7293056 9.06894413 6.11471883 7.8125 5.5 C7.17119141 5.19191406 6.52988281 4.88382812 5.86914062 4.56640625 C1.11300223 2.22600446 1.11300223 2.22600446 0 0 Z " fill="#09EBEA" transform="translate(279,399)"/>
<path d="M0 0 C1.98 0 3.96 0 6 0 C3.73762373 2.47266124 1.42546667 4.063866 -1.5 5.6875 C-2.66015625 6.34298828 -2.66015625 6.34298828 -3.84375 7.01171875 C-6 8 -6 8 -9 8 C-9 7.01 -9 6.02 -9 5 C-8.01 5 -7.02 5 -6 5 C-6 4.34 -6 3.68 -6 3 C-4.02 3 -2.04 3 0 3 C0 2.01 0 1.02 0 0 Z " fill="#50BDBD" transform="translate(227,457)"/>
<path d="M0 0 C-1.28519565 2.86697492 -2.57129254 4.97607712 -5 7 C-5.66 7 -6.32 7 -7 7 C-7 7.66 -7 8.32 -7 9 C-7.66 8.67 -8.32 8.34 -9 8 C-9.625 5.4375 -9.625 5.4375 -10 3 C-8.70990357 2.49596232 -7.41786211 1.99690074 -6.125 1.5 C-5.04605469 1.08234375 -5.04605469 1.08234375 -3.9453125 0.65625 C-2 0 -2 0 0 0 Z " fill="#D7D8D8" transform="translate(154,61)"/>
<path d="M0 0 C0.66 0.33 1.32 0.66 2 1 C2 1.66 2 2.32 2 3 C2.66 3.33 3.32 3.66 4 4 C3.50628906 4.30292969 3.01257812 4.60585937 2.50390625 4.91796875 C-1.69897215 7.548514 -1.69897215 7.548514 -3.9375 11.8125 C-3.958125 12.534375 -3.97875 13.25625 -4 14 C-4.99 13.67 -5.98 13.34 -7 13 C-5.80100302 9.9168649 -4.52299523 6.93720508 -3 4 C-2.34 4 -1.68 4 -1 4 C-0.67 2.68 -0.34 1.36 0 0 Z " fill="#E7E7E5" transform="translate(40,151)"/>
<path d="M0 0 C0 1.32 0 2.64 0 4 C-0.66 4.66 -1.32 5.32 -2 6 C-3.32 6 -4.64 6 -6 6 C-6 4.02 -6 2.04 -6 0 C-3.50907189 -1.24546405 -2.58919267 -0.7767578 0 0 Z " fill="#9D9E9A" transform="translate(372,417)"/>
<path d="M0 0 C0.33 0.66 0.66 1.32 1 2 C0.67 2.99 0.34 3.98 0 5 C0.66 5 1.32 5 2 5 C2 5.66 2 6.32 2 7 C3.65 7 5.3 7 7 7 C7.33 7.99 7.66 8.98 8 10 C7.01 10.33 6.02 10.66 5 11 C4.67 10.34 4.34 9.68 4 9 C2.34948712 7.88365848 2.34948712 7.88365848 0.4375 6.875 C-0.696875 6.25625 -1.83125 5.6375 -3 5 C-3 3.68 -3 2.36 -3 1 C-2.01 0.67 -1.02 0.34 0 0 Z " fill="#B0B0AF" transform="translate(100,435)"/>
<path d="M0 0 C1.65 0.33 3.3 0.66 5 1 C6 4 6 4 6 8 C3.23737447 7.6189482 2.15856106 7.16402868 0.1875 5.125 C-0.204375 4.42375 -0.59625 3.7225 -1 3 C-0.67 2.01 -0.34 1.02 0 0 Z " fill="#B5B6B2" transform="translate(342,169)"/>
<path d="M0 0 C4 4 4 4 5 7 C2.03 9.475 2.03 9.475 -1 12 C-0.67 8.04 -0.34 4.08 0 0 Z " fill="#E9E9E8" transform="translate(391,130)"/>
<path d="M0 0 C-3.81234923 3.3502463 -7.33285711 5.16974789 -12 7 C-12 6.01 -12 5.02 -12 4 C-11.34 4 -10.68 4 -10 4 C-10 3.34 -10 2.68 -10 2 C-6.3558226 -0.4294516 -4.28758728 -0.16179575 0 0 Z " fill="#6EC7C6" transform="translate(180,488)"/>
<path d="M0 0 C0.33 0 0.66 0 1 0 C1 7.92 1 15.84 1 24 C-0.32 23.34 -1.64 22.68 -3 22 C-2.34 21.34 -1.68 20.68 -1 20 C-0.63047951 17.87139338 -0.63047951 17.87139338 -0.5859375 15.4296875 C-0.54726562 14.53378906 -0.50859375 13.63789063 -0.46875 12.71484375 C-0.4378125 11.77769531 -0.406875 10.84054687 -0.375 9.875 C-0.33632812 8.93011719 -0.29765625 7.98523438 -0.2578125 7.01171875 C-0.16338654 4.67467625 -0.07781606 2.33764499 0 0 Z " fill="#CECECD" transform="translate(106,381)"/>
<path d="M0 0 C0.66 0 1.32 0 2 0 C2 0.66 2 1.32 2 2 C1.34 2.66 0.68 3.32 0 4 C0 4.99 0 5.98 0 7 C-2 9.1875 -2 9.1875 -4 11 C-4.33 9.02 -4.66 7.04 -5 5 C-4.34 5 -3.68 5 -3 5 C-2.5359375 4.0409375 -2.5359375 4.0409375 -2.0625 3.0625 C-1 1 -1 1 0 0 Z " fill="#E5E5E3" transform="translate(344,355)"/>
<path d="M0 0 C0.33 0.99 0.66 1.98 1 3 C-0.625 5.6875 -0.625 5.6875 -3 8 C-5.75 8.3125 -5.75 8.3125 -8 8 C-6.88333826 4.65001479 -6.25305075 4.20659778 -3.4375 2.3125 C-2.79683594 1.87550781 -2.15617187 1.43851562 -1.49609375 0.98828125 C-1.00238281 0.66214844 -0.50867188 0.33601563 0 0 Z " fill="#E2E2E2" transform="translate(104,85)"/>
<path d="M0 0 C-5.94 3.465 -5.94 3.465 -12 7 C-12.33 6.34 -12.66 5.68 -13 5 C-12.34 5 -11.68 5 -11 5 C-11 4.01 -11 3.02 -11 2 C-9.73392393 1.46770674 -8.46189588 0.94955456 -7.1875 0.4375 C-6.47980469 0.14746094 -5.77210938 -0.14257812 -5.04296875 -0.44140625 C-3 -1 -3 -1 0 0 Z " fill="#7CC8C7" transform="translate(247,450)"/>
<path d="M0 0 C1.7074998 1.28062485 3.37373596 2.61767557 5 4 C5 4.66 5 5.32 5 6 C5.99 6.33 6.98 6.66 8 7 C6.02 7.99 6.02 7.99 4 9 C3.67 7.68 3.34 6.36 3 5 C1.68 5 0.36 5 -1 5 C-0.67 3.35 -0.34 1.7 0 0 Z " fill="#A09F9A" transform="translate(89,390)"/>
<path d="M0 0 C0 0.99 0 1.98 0 3 C-0.99 3.495 -0.99 3.495 -2 4 C-2.65213292 6.02463255 -2.65213292 6.02463255 -3 8 C-6.875 3.25 -6.875 3.25 -8 1 C-5.10765685 0.17361624 -3.11257569 0 0 0 Z " fill="#D5D7D6" transform="translate(181,54)"/>
<path d="M0 0 C0.66 0.66 1.32 1.32 2 2 C0.35 3.98 -1.3 5.96 -3 8 C-3.99 7.67 -4.98 7.34 -6 7 C-6.33 7.33 -6.66 7.66 -7 8 C-7.66 8 -8.32 8 -9 8 C-8.67 6.68 -8.34 5.36 -8 4 C-6.35 4.33 -4.7 4.66 -3 5 C-2.01 3.35 -1.02 1.7 0 0 Z " fill="#E7E8E3" transform="translate(80,147)"/>
<path d="M0 0 C1.65 0 3.3 0 5 0 C5 0.66 5 1.32 5 2 C5.66 2.33 6.32 2.66 7 3 C6.01 3.99 5.02 4.98 4 6 C1.525 5.01 1.525 5.01 -1 4 C-0.67 2.68 -0.34 1.36 0 0 Z " fill="#EDEDEB" transform="translate(62,121)"/>
<path d="M0 0 C-0.625 1.9375 -0.625 1.9375 -2 4 C-5.125 4.75 -5.125 4.75 -8 5 C-8.66 4.01 -9.32 3.02 -10 2 C-3.375 0 -3.375 0 0 0 Z " fill="#D9D9D9" transform="translate(168,57)"/>
<path d="M0 0 C0.99 0 1.98 0 3 0 C4.02028865 1.31787285 5.01971384 2.65210653 6 4 C6.99 4.33 7.98 4.66 9 5 C9 5.99 9 6.98 9 8 C4.75153925 7.52794881 2.73180712 5.11122478 0 2 C0 1.34 0 0.68 0 0 Z " fill="#B2B2B0" transform="translate(70,415)"/>
<path d="M0 0 C2.31 0.33 4.62 0.66 7 1 C4.47211993 3.79872437 2.79588866 5.45773019 -1 6 C-0.67 4.02 -0.34 2.04 0 0 Z " fill="#E9E8E6" transform="translate(112,113)"/>
<path d="M0 0 C-3.63 2.31 -7.26 4.62 -11 7 C-11 4 -11 4 -9.609375 2.578125 C-8.99578125 2.13984375 -8.3821875 1.7015625 -7.75 1.25 C-7.14671875 0.80140625 -6.5434375 0.3528125 -5.921875 -0.109375 C-4 -1 -4 -1 0 0 Z " fill="#0DF3F4" transform="translate(238,416)"/>
<path d="M0 0 C0.66 0.33 1.32 0.66 2 1 C-1.51822249 5.43601966 -5.75390186 6.52033129 -11 8 C-8.83385197 5.69125289 -6.60793392 3.94709819 -3.9375 2.25 C-2.89916016 1.57710937 -2.89916016 1.57710937 -1.83984375 0.890625 C-1.23269531 0.59671875 -0.62554687 0.3028125 0 0 Z " fill="#A7E2E1" transform="translate(296,8)"/>
<path d="M0 0 C1.65 0.33 3.3 0.66 5 1 C2.14693203 3.32472205 -0.54074837 4.7508258 -4 6 C-4 4.68 -4 3.36 -4 2 C-2.68 2 -1.36 2 0 2 C0 1.34 0 0.68 0 0 Z " fill="#6CC7C7" transform="translate(253,442)"/>
<path d="M0 0 C4 4.625 4 4.625 4 8 C2.68 7.34 1.36 6.68 0 6 C0 5.34 0 4.68 0 4 C-0.99 4 -1.98 4 -3 4 C-3 3.01 -3 2.02 -3 1 C-2.01 0.67 -1.02 0.34 0 0 Z " fill="#E9E9E7" transform="translate(397,138)"/>
<path d="M0 0 C0.33 1.32 0.66 2.64 1 4 C-2.47325181 5.1577506 -5.36067448 5.06866652 -9 5 C-2.87096774 0 -2.87096774 0 0 0 Z " fill="#6AC6C5" transform="translate(256,33)"/>
<path d="M0 0 C0.66 0.33 1.32 0.66 2 1 C0.02 4.96 -1.96 8.92 -4 13 C-5.06337251 8.74650995 -5.06328907 8.37494164 -3.125 4.8125 C-2.57199219 3.77029297 -2.57199219 3.77029297 -2.0078125 2.70703125 C-1 1 -1 1 0 0 Z " fill="#0DF3F4" transform="translate(165,463)"/>
<path d="M0 0 C1.32 0.33 2.64 0.66 4 1 C-1.14285714 5.42857143 -1.14285714 5.42857143 -5 6 C-4.67 4.68 -4.34 3.36 -4 2 C-2.68 2 -1.36 2 0 2 C0 1.34 0 0.68 0 0 Z " fill="#75C6C4" transform="translate(301,415)"/>
<path d="M0 0 C0.66 0 1.32 0 2 0 C0.61735163 2.86867231 -0.92148553 5.56024032 -2.625 8.25 C-3.07101563 8.95640625 -3.51703125 9.6628125 -3.9765625 10.390625 C-4.48316406 11.18726563 -4.48316406 11.18726563 -5 12 C-5.33 10.68 -5.66 9.36 -6 8 C-5.34 8 -4.68 8 -4 8 C-4 7.01 -4 6.02 -4 5 C-3.34 5 -2.68 5 -2 5 C-1.855625 4.360625 -1.71125 3.72125 -1.5625 3.0625 C-1 1 -1 1 0 0 Z " fill="#D5D5D3" transform="translate(102,172)"/>
<path d="M0 0 C0.66 0 1.32 0 2 0 C0.61811547 3.21043882 -0.92421903 5.04936365 -3.625 7.25 C-4.57246094 8.03117188 -4.57246094 8.03117188 -5.5390625 8.828125 C-6.02117187 9.21484375 -6.50328125 9.6015625 -7 10 C-7 7 -7 7 -5.5625 5.4375 C-5.046875 4.963125 -4.53125 4.48875 -4 4 C-3.67 3.34 -3.34 2.68 -3 2 C-2.01 2 -1.02 2 0 2 C0 1.34 0 0.68 0 0 Z " fill="#D4D4D2" transform="translate(118,154)"/>
<path d="M0 0 C-0.875 4.75 -0.875 4.75 -2 7 C-4.0625 7.625 -4.0625 7.625 -6 8 C-5.62403791 5.21788056 -5.32681541 3.4120716 -3.5625 1.1875 C-2 0 -2 0 0 0 Z " fill="#9B9A97" transform="translate(120,149)"/>
<path d="M0 0 C1.98 0 3.96 0 6 0 C6 0.66 6 1.32 6 2 C2.63316085 4.43160605 1.26649636 5 -3 5 C-3 4.34 -3 3.68 -3 3 C-1.68 3 -0.36 3 1 3 C0.67 2.01 0.34 1.02 0 0 Z " fill="#67C1BF" transform="translate(148,502)"/>
<path d="M0 0 C0.66 0 1.32 0 2 0 C1.38461538 6.52307692 1.38461538 6.52307692 -0.5625 8.9375 C-1.036875 9.288125 -1.51125 9.63875 -2 10 C-2.66 9.34 -3.32 8.68 -4 8 C-3.34 7.05125 -2.68 6.1025 -2 5.125 C0.17968457 2.33761045 0.17968457 2.33761045 0 0 Z " fill="#BBBAB7" transform="translate(403,376)"/>
<path d="M0 0 C4.31320068 1.75722991 7.9031084 4.8062168 10 9 C5.58968355 8.49111733 3.10672401 5.96550928 0 3 C0 2.01 0 1.02 0 0 Z " fill="#10F0EF" transform="translate(153,254)"/>
<path d="M0 0 C3 3.75 3 3.75 3 6 C2.34 6 1.68 6 1 6 C0.67 6.66 0.34 7.32 0 8 C-1.4606285 5.35261084 -2 4.10551666 -2 1 C-1.34 0.67 -0.68 0.34 0 0 Z " fill="#E6E7E2" transform="translate(417,172)"/>
<path d="M0 0 C0.89203125 0.00902344 1.7840625 0.01804687 2.703125 0.02734375 C3.37859375 0.03894531 4.0540625 0.05054687 4.75 0.0625 C4.75 0.3925 4.75 0.7225 4.75 1.0625 C-4.66002278 3.35862756 -4.66002278 3.35862756 -9.25 3.0625 C-9.25 2.4025 -9.25 1.7425 -9.25 1.0625 C-6.09493858 0.12630187 -3.28413498 -0.0432123 0 0 Z " fill="#CBCBCA" transform="translate(192.25,115.9375)"/>
<path d="M0 0 C-0.50603992 2.16874252 -0.99983813 3.99967627 -2 6 C-3.32 5.67 -4.64 5.34 -6 5 C-3.74193548 0 -3.74193548 0 0 0 Z " fill="#DDDDDD" transform="translate(128,72)"/>
<path d="M0 0 C2.475 0.495 2.475 0.495 5 1 C5 2.32 5 3.64 5 5 C3.35 5 1.7 5 0 5 C0 3.35 0 1.7 0 0 Z " fill="#8E8E8B" transform="translate(357,424)"/>
<path d="M0 0 C0.125 5.75 0.125 5.75 -1 8 C-1.99 8 -2.98 8 -4 8 C-4.36780384 3.46375267 -4.36780384 3.46375267 -2.5625 1.1875 C-1 0 -1 0 0 0 Z " fill="#BBBBB5" transform="translate(28,340)"/>
<path d="M0 0 C0 3.86695678 -1.41909971 6.5088452 -3 10 C-3.66 8.68 -4.32 7.36 -5 6 C-3.35 4.02 -1.7 2.04 0 0 Z " fill="#B0B1AB" transform="translate(93,183)"/>
<path d="M0 0 C0.33 0.99 0.66 1.98 1 3 C-0.21484375 4.82421875 -0.21484375 4.82421875 -1.9375 6.6875 C-2.50339844 7.31011719 -3.06929688 7.93273437 -3.65234375 8.57421875 C-4.09707031 9.04472656 -4.54179688 9.51523438 -5 10 C-5.33 9.01 -5.66 8.02 -6 7 C-5.34 7 -4.68 7 -4 7 C-3.896875 6.401875 -3.79375 5.80375 -3.6875 5.1875 C-2.91123545 2.71756736 -1.92911079 1.67748765 0 0 Z " fill="#CACAC8" transform="translate(110,162)"/>
<path d="M0 0 C0.66 0.66 1.32 1.32 2 2 C1.175 2.763125 0.35 3.52625 -0.5 4.3125 C-3.34055197 6.75434142 -3.34055197 6.75434142 -3 10 C-3.99 9.67 -4.98 9.34 -6 9 C-4.3619751 5.48994665 -2.96865509 2.54456151 0 0 Z " fill="#9A9994" transform="translate(88,141)"/>
<path d="M0 0 C0.598125 0.350625 1.19625 0.70125 1.8125 1.0625 C1.1525 1.0625 0.4925 1.0625 -0.1875 1.0625 C-0.1875 1.7225 -0.1875 2.3825 -0.1875 3.0625 C-2.1675 3.3925 -4.1475 3.7225 -6.1875 4.0625 C-5.875 2.125 -5.875 2.125 -5.1875 0.0625 C-2.1875 -0.9375 -2.1875 -0.9375 0 0 Z " fill="#8F8E8B" transform="translate(151.1875,128.9375)"/>
<path d="M0 0 C1.32 0.99 2.64 1.98 4 3 C3.67 4.65 3.34 6.3 3 8 C2.01 7.67 1.02 7.34 0 7 C0 4.69 0 2.38 0 0 Z " fill="#A8A8A3" transform="translate(70,367)"/>
<path d="M0 0 C0.66 0 1.32 0 2 0 C1.125 5.75 1.125 5.75 0 8 C-0.99 8 -1.98 8 -3 8 C-3 7.34 -3 6.68 -3 6 C-2.34 6 -1.68 6 -1 6 C-0.67 4.02 -0.34 2.04 0 0 Z " fill="#C5C5C3" transform="translate(412,362)"/>
<path d="M0 0 C0.66 0 1.32 0 2 0 C2.53229326 1.26607607 3.05044544 2.53810412 3.5625 3.8125 C3.85253906 4.52019531 4.14257812 5.22789062 4.44140625 5.95703125 C5 8 5 8 4 11 C3.32591692 9.73308493 2.66099503 8.46129251 2 7.1875 C1.62875 6.47980469 1.2575 5.77210938 0.875 5.04296875 C0 3 0 3 0 0 Z " fill="#CECECC" transform="translate(25,348)"/>
<path d="M0 0 C0.66 0.33 1.32 0.66 2 1 C1 4 1 4 -0.875 5 C-1.57625 5.33 -2.2775 5.66 -3 6 C-4.70921589 7.5412312 -4.70921589 7.5412312 -6 9 C-6 6 -6 6 -4.6875 4.39453125 C-4.130625 3.87246094 -3.57375 3.35039062 -3 2.8125 C-2.443125 2.28269531 -1.88625 1.75289062 -1.3125 1.20703125 C-0.6628125 0.60955078 -0.6628125 0.60955078 0 0 Z " fill="#949390" transform="translate(99,130)"/>
<path d="M0 0 C0.66 0.33 1.32 0.66 2 1 C0.71186658 1.83878455 -0.58063256 2.67086783 -1.875 3.5 C-2.59429687 3.9640625 -3.31359375 4.428125 -4.0546875 4.90625 C-6 6 -6 6 -8 6 C-8 5.34 -8 4.68 -8 4 C-6.71349294 3.30289269 -5.42059335 2.61757124 -4.125 1.9375 C-3.40570313 1.55464844 -2.68640625 1.17179687 -1.9453125 0.77734375 C-1.30335938 0.52082031 -0.66140625 0.26429687 0 0 Z " fill="#BAB9B8" transform="translate(159,126)"/>
<path d="M0 0 C0 2.31 0 4.62 0 7 C-0.66 5.68 -1.32 4.36 -2 3 C-3.98 3 -5.96 3 -8 3 C-5.53387212 -0.1151089 -3.89156016 -0.31553191 0 0 Z " fill="#73E3DD" transform="translate(306,5)"/>
<path d="M0 0 C0.66 1.32 1.32 2.64 2 4 C0.02 4.99 0.02 4.99 -2 6 C-2.33 4.68 -2.66 3.36 -3 2 C-2.01 1.34 -1.02 0.68 0 0 Z " fill="#EAEBE6" transform="translate(371,367)"/>
<path d="M0 0 C1.32 0.66 2.64 1.32 4 2 C2.60210322 4.79579355 0.7371003 5.59807058 -2 7 C-2.66 6.67 -3.32 6.34 -4 6 C-2.68 4.02 -1.36 2.04 0 0 Z " fill="#E6E6E4" transform="translate(351,344)"/>
<path d="M0 0 C0.66 0 1.32 0 2 0 C1.67 3.3 1.34 6.6 1 10 C0.34 9.34 -0.32 8.68 -1 8 C-0.96712417 5.27130593 -0.43602229 2.7033382 0 0 Z " fill="#DEDEDB" transform="translate(74,231)"/>
<path d="M0 0 C-0.625 1.9375 -0.625 1.9375 -2 4 C-5.125 4.75 -5.125 4.75 -8 5 C-3.16129032 0 -3.16129032 0 0 0 Z " fill="#88CBC8" transform="translate(264,28)"/>
<path d="M0 0 C-5.2734375 3.22265625 -5.2734375 3.22265625 -7 4 C-7.66 3.67 -8.32 3.34 -9 3 C-8.67 2.01 -8.34 1.02 -8 0 C-4.71303767 -0.79953138 -3.28976808 -1.09658936 0 0 Z " fill="#79C6C6" transform="translate(193,481)"/>
<path d="M0 0 C0.66 0 1.32 0 2 0 C2 2.31 2 4.62 2 7 C1.01 7.495 1.01 7.495 0 8 C-0.99 7.34 -1.98 6.68 -3 6 C-2.505 5.566875 -2.01 5.13375 -1.5 4.6875 C0.33218192 3.00259517 0.33218192 3.00259517 0 0 Z " fill="#908F8F" transform="translate(105,435)"/>
<path d="M0 0 C1 3 1 3 1 6 C-0.32 6 -1.64 6 -3 6 C-3 4.68 -3 3.36 -3 2 C-2.01 1.34 -1.02 0.68 0 0 Z " fill="#959591" transform="translate(377,408)"/>
<path d="M0 0 C1.65 0 3.3 0 5 0 C4.34 1.32 3.68 2.64 3 4 C1.68 4 0.36 4 -1 4 C-0.67 2.68 -0.34 1.36 0 0 Z " fill="#EEEDE9" transform="translate(350,390)"/>
<path d="M0 0 C0 0.66 0 1.32 0 2 C-4.15267176 5.11450382 -4.15267176 5.11450382 -7.3125 4.6875 C-7.869375 4.460625 -8.42625 4.23375 -9 4 C-2.25 0 -2.25 0 0 0 Z " fill="#94E3E3" transform="translate(224,385)"/>
<path d="M0 0 C0.66 0.33 1.32 0.66 2 1 C-2.296875 5.00390625 -2.296875 5.00390625 -4 6 C-6.203125 5.65234375 -6.203125 5.65234375 -8 5 C-6.71475739 4.13619741 -5.42157581 3.28419631 -4.125 2.4375 C-3.04605469 1.72400391 -3.04605469 1.72400391 -1.9453125 0.99609375 C-1.30335938 0.66738281 -0.66140625 0.33867187 0 0 Z " fill="#A1E1E0" transform="translate(236,377)"/>
<path d="M0 0 C-0.99 1.485 -0.99 1.485 -2 3 C-5.625 3.1875 -5.625 3.1875 -9 3 C-6.38997624 -0.48003168 -4.1689578 -0.27793052 0 0 Z " fill="#63C3C2" transform="translate(273,25)"/>
<path d="M0 0 C2.31 0.33 4.62 0.66 7 1 C2.25 5 2.25 5 0 5 C0 3.35 0 1.7 0 0 Z " fill="#90C9C9" transform="translate(140,506)"/>
<path d="M0 0 C2.64 0 5.28 0 8 0 C5.82575883 2.50037734 4.26954202 3.43628586 1 4 C0.67 2.68 0.34 1.36 0 0 Z " fill="#73C8CA" transform="translate(211,465)"/>
<path d="M0 0 C1.98 0 3.96 0 6 0 C3.64722731 2.72426311 1.37503669 3.8141763 -2 5 C-2 4.34 -2 3.68 -2 3 C-1.34 3 -0.68 3 0 3 C0 2.01 0 1.02 0 0 Z " fill="#79CCC8" transform="translate(227,457)"/>
<path d="M0 0 C0.33 0 0.66 0 1 0 C1.3125 2.25 1.3125 2.25 1 5 C-1.5 7.3125 -1.5 7.3125 -4 9 C-2.80100302 5.9168649 -1.52299523 2.93720508 0 0 Z " fill="#0BF3F1" transform="translate(197,411)"/>
<path d="M0 0 C0.33 0 0.66 0 1 0 C1 1.65 1 3.3 1 5 C-1.02045442 4.39816251 -3.02111039 3.72693904 -5 3 C-5.33 2.34 -5.66 1.68 -6 1 C-4.7934375 1.0309375 -4.7934375 1.0309375 -3.5625 1.0625 C-1.06645115 1.29633621 -1.06645115 1.29633621 0 0 Z " fill="#01CACD" transform="translate(272,390)"/>
<path d="M0 0 C1.485 0.99 1.485 0.99 3 2 C2.67 4.31 2.34 6.62 2 9 C1.67 9 1.34 9 1 9 C0.67 6.03 0.34 3.06 0 0 Z " fill="#E1E1DB" transform="translate(8,250)"/>
<path d="M0 0 C2.375 0.1875 2.375 0.1875 5 1 C6.3125 3.5625 6.3125 3.5625 7 6 C3.63279613 4.60667426 2.0140476 3.0210714 0 0 Z " fill="#02BDBE" transform="translate(142,244)"/>
</svg>
